# xmcd CD database file
#
# Track frame offsets:
#	150
#	13499
#	28381
#	40201
#	52272
#	66597
#	80427
#	96044
#	110505
#	124896
#	138817
#	150007
#	162841
#	202853
#	216791
#	228998
#	243364
#	257462
#	272588
#	286338
#
# Disc length: 4007 seconds
#
# Revision: 0
# Processed by: cddbd v1.5.2PL0 Copyright (c) Steve Scherf et al.
# Submitted via: CDex 1.70beta2
#
DISCID=180fa514
DTITLE=Various Artist - Jazz im New York der wilden Zwanziger
DYEAR=2007
DGENRE=Jazz
TTITLE0=Jelly Roll Morton - Freakish
TTITLE1=Fats Waller and Alberta Hunter - Beale Street Blues
TTITLE2=James P. Johnson - The Harlem Strut
TTITLE3=Georgia Strutters - It´s Right Here For You
TTITLE4=Original Dixieland Jass Band - Livery Stable Blues
TTITLE5=Fletcher Henderson and His Orchestra - Money Blues
TTITLE6=Mound City Blowers - One Hour
TTITLE7=Bessie Smith and Louis Armstrong - St. Louis Blues
TTITLE8=Louis Armstrong and His Orchestra - Black And Blue
TTITLE9=Jean Goldkette and His Orchestra - Clementine
TTITLE10=Joe Venuti and Eddie Lang - Doin´ Things
TTITLE11=Wolverine Orchestra - Big Boy
TTITLE12=Paul Whiteman and His Concert Orchestra - Rhapsody in Blue
TTITLE13=Benny Goodman´s Boys - Shirt Tail Stomp
TTITLE14=The Jungle Band - Dog Bottom
TTITLE15=Duke Ellington and His Cotton Club Orchestra - Mood Indigo
TTITLE16=Ethel Waters with Duke Ellington and His Orchestra - I Can´t Give You Anything but Love
TTITLE17=Bill Robinson with Irving Mills Hotsy Totsy Gang - Ain´t misbehaving
TTITLE18=Clarence Williams Blue Five - Wild Cat Blues
TTITLE19=Cab Calloway and His Orchestra - Minnie the Moocher
EXTD=YEAR: 2007
EXTT0=
EXTT1=
EXTT2=
EXTT3=
EXTT4=
EXTT5=
EXTT6=
EXTT7=
EXTT8=
EXTT9=
EXTT10=
EXTT11=
EXTT12=
EXTT13=
EXTT14=
EXTT15=
EXTT16=
EXTT17=
EXTT18=
EXTT19=
PLAYORDER=
